<svg width="512" height="512" viewBox="0 0 512 512" fill="none" xmlns="http://www.w3.org/2000/svg">
  <rect width="512" height="512" rx="128" fill="#0099FF"/>
  <path d="M144 256C144 194.144 194.144 144 256 144C317.856 144 368 194.144 368 256C368 317.856 317.856 368 256 368H144V256Z" fill="white"/>
  <path d="M256 208C229.49 208 208 229.49 208 256C208 282.51 229.49 304 256 304C282.51 304 304 282.51 304 256C304 229.49 282.51 208 256 208Z" fill="#0099FF"/>
  <path d="M208 144H256V96H208V144Z" fill="white"/>
  <path d="M304 144H256V96H304V144Z" fill="white"/>
</svg> 